<?xml version="1.0" encoding="UTF-8"?>
<svg version="1.1" xmlns="http://www.w3.org/2000/svg" width="245" height="536">
<path d="M0 0 C80.85 0 161.7 0 245 0 C245 176.88 245 353.76 245 536 C164.15 536 83.3 536 0 536 C0 359.12 0 182.24 0 0 Z " fill="#000000" transform="translate(0,0)"/>
<path d="M0 0 C2 2 2 2 2.25 4 C2.4975 4.66 2.745 5.32 3 6 C5.99615946 7.3045656 5.99615946 7.3045656 9 8 C9 8.66 9 9.32 9 10 C7.576875 10.3403125 7.576875 10.3403125 6.125 10.6875 C2.80676612 11.69083714 2.80676612 11.69083714 1.625 14.625 C1.41875 15.40875 1.2125 16.1925 1 17 C-1 15 -1 15 -2 12 C-5.00847418 10.77479736 -5.00847418 10.77479736 -8 10 C-8 9.34 -8 8.68 -8 8 C-6.02 7.67 -4.04 7.34 -2 7 C-1.34 4.69 -0.68 2.38 0 0 Z " fill="#142401" transform="translate(84,259)"/>
<path d="M0 0 C0.66 0 1.32 0 2 0 C2.33 1.98 2.66 3.96 3 6 C4.98 6.66 6.96 7.32 9 8 C6 10 6 10 3 10 C2.67 11.98 2.34 13.96 2 16 C1.34 16 0.68 16 0 16 C-0.33 14.02 -0.66 12.04 -1 10 C-3.31 9.67 -5.62 9.34 -8 9 C-7.67 8.34 -7.34 7.68 -7 7 C-3.9375 6.375 -3.9375 6.375 -1 6 C-0.67 4.02 -0.34 2.04 0 0 Z " fill="#142401" transform="translate(145,52)"/>
<path d="M0 0 C0.66 0 1.32 0 2 0 C2.33 1.98 2.66 3.96 3 6 C5.31 6.66 7.62 7.32 10 8 C7.35261084 9.4606285 6.10551666 10 3 10 C2.67 12.31 2.34 14.62 2 17 C1.34 17 0.68 17 0 17 C-0.33 14.69 -0.66 12.38 -1 10 C-3.31 9.67 -5.62 9.34 -8 9 C-7.67 8.34 -7.34 7.68 -7 7 C-4.4375 6.375 -4.4375 6.375 -2 6 C-1.34 4.02 -0.68 2.04 0 0 Z " fill="#142401" transform="translate(224,505)"/>
<path d="M0 0 C2 3 2 3 2 7 C4.97 7.495 4.97 7.495 8 8 C8 8.66 8 9.32 8 10 C6.02 10.33 4.04 10.66 2 11 C1.67 12.98 1.34 14.96 1 17 C-0.5 15.6875 -0.5 15.6875 -2 14 C-2 13.01 -2 12.02 -2 11 C-4.97 10.505 -4.97 10.505 -8 10 C-8 9.34 -8 8.68 -8 8 C-6.02 7.67 -4.04 7.34 -2 7 C-1.855625 6.030625 -1.71125 5.06125 -1.5625 4.0625 C-1 1 -1 1 0 0 Z " fill="#142401" transform="translate(32,391)"/>
<path d="M0 0 C0.66 0.33 1.32 0.66 2 1 C2.268125 1.804375 2.53625 2.60875 2.8125 3.4375 C3.78464531 6.23329232 3.78464531 6.23329232 6.625 7.3125 C7.800625 7.6528125 7.800625 7.6528125 9 8 C6 10 6 10 3 11 C1.77479736 14.00847418 1.77479736 14.00847418 1 17 C-1 15 -1 15 -1.25 13 C-1.4975 12.34 -1.745 11.68 -2 11 C-4.99615946 9.6954344 -4.99615946 9.6954344 -8 9 C-7.67 8.34 -7.34 7.68 -7 7 C-3.9375 6.375 -3.9375 6.375 -1 6 C-0.67 4.02 -0.34 2.04 0 0 Z " fill="#142401" transform="translate(216,165)"/>
<path d="M0 0 C3 0.25 3 0.25 5 2.25 C5.3125 5.25 5.3125 5.25 5 8.25 C1.79191085 10.3887261 0.72301503 10.72730962 -3 10.25 C-5.14915785 7.02626323 -5.38286803 5.98296326 -5 2.25 C-3 0.25 -3 0.25 0 0 Z " fill="#152701" transform="translate(213,89.75)"/>
<path d="M0 0 C3.625 0.375 3.625 0.375 7 1 C7.625 3.8125 7.625 3.8125 8 7 C7.01 8.485 7.01 8.485 6 10 C3 10.3125 3 10.3125 0 10 C-2 8 -2 8 -2.25 5 C-2 2 -2 2 0 0 Z " fill="#162701" transform="translate(117,508)"/>
<path d="M0 0 C2 2 2 2 2.25 4 C2.4975 4.66 2.745 5.32 3 6 C5.99615946 7.3045656 5.99615946 7.3045656 9 8 C6 10 6 10 3 11 C1.77479736 14.00847418 1.77479736 14.00847418 1 17 C0.34 16.67 -0.32 16.34 -1 16 C-1.625 13.4375 -1.625 13.4375 -2 11 C-3.98 10.34 -5.96 9.68 -8 9 C-7.67 8.34 -7.34 7.68 -7 7 C-5.35 7 -3.7 7 -2 7 C-1.855625 6.21625 -1.71125 5.4325 -1.5625 4.625 C-1 2 -1 2 0 0 Z " fill="#152501" transform="translate(19,90)"/>
<path d="M0 0 C3.63 0 7.26 0 11 0 C10 4 10 4 8 6 C5.07908607 6.37447615 3.60409928 6.4374512 1.1875 4.6875 C0 3 0 3 0 0 Z " fill="#132301" transform="translate(54,0)"/>
</svg>
