<?xml version="1.0" encoding="UTF-8"?>
<svg version="1.1" xmlns="http://www.w3.org/2000/svg" width="234" height="506">
<path d="M0 0 C77.22 0 154.44 0 234 0 C234 166.98 234 333.96 234 506 C156.78 506 79.56 506 0 506 C0 339.02 0 172.04 0 0 Z " fill="#000000" transform="translate(0,0)"/>
<path d="M0 0 C50.82 0 101.64 0 154 0 C154 29.04 154 58.08 154 88 C107.24090401 88 68.50209051 77.89159186 34 46 C33.46568359 45.50951172 32.93136719 45.01902344 32.38085938 44.51367188 C18.83858735 31.93526263 8.38285427 17.44817618 0 1 C0 0.67 0 0.34 0 0 Z " fill="#3C3800" transform="translate(80,0)"/>
<path d="M0 0 C1.32837891 0.48726563 1.32837891 0.48726563 2.68359375 0.984375 C4.46254394 1.63799275 6.23296501 2.31482317 8 3 C8.556875 2.01 8.556875 2.01 9.125 1 C11 -1 11 -1 14.0625 -1.375 C17 -1 17 -1 19 1 C19.20872719 3.78302919 19.25640898 5.48718205 18 8 C18.99257812 8.52207031 19.98515625 9.04414063 21.0078125 9.58203125 C30.82063891 14.85276099 39.55385791 20.74369627 48 28 C48.56348145 28.4837207 49.12696289 28.96744141 49.70751953 29.46582031 C61.65207755 39.84494586 71.4511977 51.68121381 80 65 C80 65.33 80 65.66 80 66 C24.56 66 -30.88 66 -88 66 C-88 42.24 -88 18.48 -88 -6 C-59.74391676 -13.06402081 -27.11146334 -10.49476 0 0 Z " fill="#3C3800" transform="translate(88,440)"/>
<path d="M0 0 C30.69 0 61.38 0 93 0 C93 12.21 93 24.42 93 37 C61.74335919 37.72689862 33.95871715 32.27962737 10 11 C9.21367187 10.34515625 8.42734375 9.6903125 7.6171875 9.015625 C4.04902093 6.02296917 2.13734505 4.2746901 0 0 Z " fill="#000000" transform="translate(141,0)"/>
<path d="M0 0 C2.08752006 1.59595333 4.13138116 3.17028269 6.05078125 4.96484375 C6.05078125 5.29484375 6.05078125 5.62484375 6.05078125 5.96484375 C-27.27921875 5.96484375 -60.60921875 5.96484375 -94.94921875 5.96484375 C-94.94921875 -0.63515625 -94.94921875 -7.23515625 -94.94921875 -14.03515625 C-85.76953125 -16.18359375 -85.76953125 -16.18359375 -81.94921875 -17.03515625 C-81.1804541 -17.21159668 -80.41168945 -17.38803711 -79.61962891 -17.56982422 C-52.26170851 -23.5204526 -22.78262938 -15.72152306 0 0 Z " fill="#000000" transform="translate(94.94921875,500.03515625)"/>
<path d="M0 0 C7.78716018 3.89358009 12.00159241 8.42325099 16 16 C16.8125 18.4375 16.8125 18.4375 17 21 C17.061875 21.63292969 17.12375 22.26585938 17.1875 22.91796875 C17.61167924 30.40738343 15.76867558 37.43944853 11.12890625 43.40625 C7.45437009 47.2405486 5.0683814 48.97264744 0 51 C0 34.17 0 17.34 0 0 Z " fill="#3C3800" transform="translate(0,87)"/>
<path d="M0 0 C0 16.17 0 32.34 0 49 C-8.29730129 44.85134935 -11.93610568 39.66586612 -15 31 C-16.51364712 22.64988048 -14.94975126 15.97672961 -10.86328125 8.61328125 C-8.66183809 5.5257226 -4.26504178 0 0 0 Z " fill="#3C3800" transform="translate(234,386)"/>
<path d="M0 0 C0.66 0 1.32 0 2 0 C2.33 1.98 2.66 3.96 3 6 C5.97 6.495 5.97 6.495 9 7 C9 7.66 9 8.32 9 9 C7.02 9.66 5.04 10.32 3 11 C2.67 12.65 2.34 14.3 2 16 C1.34 16 0.68 16 0 16 C-0.33 14.02 -0.66 12.04 -1 10 C-3.97 9.505 -3.97 9.505 -7 9 C-7 8.34 -7 7.68 -7 7 C-5.02 6.67 -3.04 6.34 -1 6 C-0.67 4.02 -0.34 2.04 0 0 Z " fill="#615C01" transform="translate(142,481)"/>
<path d="M0 0 C0.66 0 1.32 0 2 0 C2.33 1.98 2.66 3.96 3 6 C5.97 6.495 5.97 6.495 9 7 C9 7.66 9 8.32 9 9 C7.35 9.33 5.7 9.66 4 10 C3.34 11.98 2.68 13.96 2 16 C1.34 16 0.68 16 0 16 C-0.33 14.35 -0.66 12.7 -1 11 C-2.98 10.34 -4.96 9.68 -7 9 C-7 8.34 -7 7.68 -7 7 C-5.02 6.67 -3.04 6.34 -1 6 C-0.67 4.02 -0.34 2.04 0 0 Z " fill="#353100" transform="translate(174,354)"/>
<path d="M0 0 C3.125 0.375 3.125 0.375 6 1 C6.625 4.375 6.625 4.375 7 8 C5 10 5 10 2.5625 10.3125 C0 10 0 10 -1.875 8.8125 C-3 7 -3 7 -2.8125 4.4375 C-2 2 -2 2 0 0 Z " fill="#383500" transform="translate(90,91)"/>
<path d="M0 0 C2.33944736 0.28730055 4.6739143 0.61936779 7 1 C8.32841008 6.43440487 8.32841008 6.43440487 6.875 8.9375 C5 10 5 10 2.4375 9.8125 C0 9 0 9 -2 7 C-1.43181818 1.43181818 -1.43181818 1.43181818 0 0 Z " fill="#393500" transform="translate(211,463)"/>
<path d="M0 0 C2 3 2 3 3 6 C6.00847418 7.22520264 6.00847418 7.22520264 9 8 C6 10 6 10 3 11 C1.77479736 14.00847418 1.77479736 14.00847418 1 17 C-1 15 -1 15 -1.25 13 C-1.4975 12.34 -1.745 11.68 -2 11 C-4.99615946 9.6954344 -4.99615946 9.6954344 -8 9 C-6 7 -6 7 -4 6.75 C-3.01 6.37875 -3.01 6.37875 -2 6 C-0.6954344 3.00384054 -0.6954344 3.00384054 0 0 Z " fill="#625C01" transform="translate(166,37)"/>
<path d="M0 0 C0.66 0 1.32 0 2 0 C2.33 1.98 2.66 3.96 3 6 C5.97 6.495 5.97 6.495 9 7 C8.34 7.66 7.68 8.32 7 9 C5.68 9 4.36 9 3 9 C2.87625 9.804375 2.7525 10.60875 2.625 11.4375 C2.41875 12.283125 2.2125 13.12875 2 14 C1.01 14.495 1.01 14.495 0 15 C-0.33 13.35 -0.66 11.7 -1 10 C-2.98 9.34 -4.96 8.68 -7 8 C-6.34 7.34 -5.68 6.68 -5 6 C-3.68 6 -2.36 6 -1 6 C-0.67 4.02 -0.34 2.04 0 0 Z " fill="#353200" transform="translate(200,99)"/>
<path d="M0 0 C3.0625 0.1875 3.0625 0.1875 5.0625 2.1875 C5.3125 4.6875 5.3125 4.6875 5.0625 7.1875 C3.0625 9.1875 3.0625 9.1875 0.0625 9.4375 C-2.9375 9.1875 -2.9375 9.1875 -4.9375 7.1875 C-4.23164336 0.2701049 -4.23164336 0.2701049 0 0 Z " fill="#393500" transform="translate(47.9375,332.8125)"/>
<path d="M0 0 C3.0625 0.1875 3.0625 0.1875 5.0625 2.1875 C5.3125 4.6875 5.3125 4.6875 5.0625 7.1875 C3.0625 9.1875 3.0625 9.1875 0.0625 9.4375 C-2.9375 9.1875 -2.9375 9.1875 -4.9375 7.1875 C-4.23164336 0.2701049 -4.23164336 0.2701049 0 0 Z " fill="#645E01" transform="translate(111.9375,3.8125)"/>
<path d="M0 0 C0.66 0.33 1.32 0.66 2 1 C2 2.65 2 4.3 2 6 C4.31 6.33 6.62 6.66 9 7 C7 9 7 9 5 9.25 C4.34 9.4975 3.68 9.745 3 10 C1.6954344 12.99615946 1.6954344 12.99615946 1 16 C-1 13 -1 13 -2 10 C-5.00847418 8.77479736 -5.00847418 8.77479736 -8 8 C-6 6 -6 6 -4 5.6875 C-3.34 5.460625 -2.68 5.23375 -2 5 C-0.70339566 2.50965614 -0.70339566 2.50965614 0 0 Z " fill="#373300" transform="translate(26,403)"/>
<path d="M0 0 C0.66 0 1.32 0 2 0 C2.33 1.98 2.66 3.96 3 6 C5.97 6.495 5.97 6.495 9 7 C7.03617993 8.50559539 5.21736634 9.89131683 3 11 C2.34786708 13.02463255 2.34786708 13.02463255 2 15 C1.34 15 0.68 15 0 15 C-0.33 13.02 -0.66 11.04 -1 9 C-2.65 9 -4.3 9 -6 9 C-6.33 8.34 -6.66 7.68 -7 7 C-5.02 6.67 -3.04 6.34 -1 6 C-0.67 4.02 -0.34 2.04 0 0 Z " fill="#363300" transform="translate(34,147)"/>
<path d="M0 0 C0.66 0.33 1.32 0.66 2 1 C2.625 3.5625 2.625 3.5625 3 6 C4.65 6.33 6.3 6.66 8 7 C7 9 7 9 5.0625 9.8125 C2.31843292 11.39241741 1.93109876 13.0515206 1 16 C-1 14 -1 14 -1.3125 12 C-1.539375 11.34 -1.76625 10.68 -2 10 C-4.49034386 8.70339566 -4.49034386 8.70339566 -7 8 C-4 6 -4 6 -1 6 C-0.67 4.02 -0.34 2.04 0 0 Z " fill="#373300" transform="translate(208,233)"/>
<path d="M0 0 C2 2 2 2 3 5 C5.50447516 6.21869929 5.50447516 6.21869929 8 7 C6 9 6 9 3 10 C1.77479736 13.00847418 1.77479736 13.00847418 1 16 C-1 13 -1 13 -2 10 C-5.00847418 8.77479736 -5.00847418 8.77479736 -8 8 C-5 6 -5 6 -2 5 C-0.78130071 2.49552484 -0.78130071 2.49552484 0 0 Z " fill="#383400" transform="translate(55,1)"/>
<path d="M0 0 C2.9375 0.1875 2.9375 0.1875 3.9375 1.1875 C3.97842937 3.52047433 3.97991723 5.85455225 3.9375 8.1875 C0.5625 8.8125 0.5625 8.8125 -3.0625 9.1875 C-5.0625 7.1875 -5.0625 7.1875 -5.3125 4.6875 C-4.92416471 0.80414706 -3.81576087 0.23361801 0 0 Z " fill="#3B3700" transform="translate(40.0625,48.8125)"/>
</svg>
