<?xml version="1.0" encoding="UTF-8"?>
<svg version="1.1" xmlns="http://www.w3.org/2000/svg" width="232" height="503">
<path d="M0 0 C76.56 0 153.12 0 232 0 C232 165.99 232 331.98 232 503 C155.44 503 78.88 503 0 503 C0 337.01 0 171.02 0 0 Z " fill="#000000" transform="translate(0,0)"/>
<path d="M0 0 C0 33.33 0 66.66 0 101 C-49.5 101 -99 101 -150 101 C-141.25599586 81.01370483 -131.90500048 64.72105526 -117 49 C-116.10667969 48.04222656 -115.21335938 47.08445312 -114.29296875 46.09765625 C-95.27392021 26.11148262 -69.7717707 11.51047423 -43 5 C-42.2992334 4.82484863 -41.5984668 4.64969727 -40.87646484 4.46923828 C-38.62806917 3.90799715 -36.37741429 3.35737956 -34.125 2.8125 C-33.435271 2.64524414 -32.74554199 2.47798828 -32.03491211 2.30566406 C-31.36596924 2.14936523 -30.69702637 1.99306641 -30.0078125 1.83203125 C-29.42660645 1.69514893 -28.84540039 1.5582666 -28.24658203 1.41723633 C-18.44743898 -0.40266538 -10.36026085 0 0 0 Z " fill="#3C3800" transform="translate(232,402)"/>
<path d="M0 0 C0 16.5 0 33 0 50 C-30.69 50 -61.38 50 -93 50 C-80.29672448 27.76926784 -58.31102564 10.87358389 -33.64453125 3.6484375 C-22.15598801 0.57390945 -12.04812438 0 0 0 Z " fill="#000000" transform="translate(232,453)"/>
<path d="M0 0 C2.5625 0.3125 2.5625 0.3125 4.4375 1.5 C5.5625 3.3125 5.5625 3.3125 5.375 5.875 C4.5625 8.3125 4.5625 8.3125 2.5625 10.3125 C-0.73464793 9.98278521 -2.0601839 9.6898161 -4.4375 7.3125 C-4.6875 4.8125 -4.6875 4.8125 -4.4375 2.3125 C-2.4375 0.3125 -2.4375 0.3125 0 0 Z " fill="#0F1C00" transform="translate(93.4375,382.6875)"/>
<path d="M0 0 C0.66 0 1.32 0 2 0 C2.2475 0.969375 2.495 1.93875 2.75 2.9375 C3.36875 4.4534375 3.36875 4.4534375 4 6 C6.03243548 6.96877057 6.03243548 6.96877057 8 7 C8 7.66 8 8.32 8 9 C6.35 9.33 4.7 9.66 3 10 C2.67 11.65 2.34 13.3 2 15 C1.34 15 0.68 15 0 15 C-0.33 13.35 -0.66 11.7 -1 10 C-3.97 9.505 -3.97 9.505 -7 9 C-7 8.34 -7 7.68 -7 7 C-5.02 6.67 -3.04 6.34 -1 6 C-0.67 4.02 -0.34 2.04 0 0 Z " fill="#0E1A00" transform="translate(131,43)"/>
<path d="M0 0 C3.29714793 0.32971479 4.6226839 0.6226839 7 3 C6.67028521 6.29714793 6.3773161 7.6226839 4 10 C0.70285207 9.67028521 -0.6226839 9.3773161 -3 7 C-2.67028521 3.70285207 -2.3773161 2.3773161 0 0 Z " fill="#101D00" transform="translate(22,140)"/>
<path d="M0 0 C0.66 0.33 1.32 0.66 2 1 C2.103125 1.639375 2.20625 2.27875 2.3125 2.9375 C2.6528125 3.9584375 2.6528125 3.9584375 3 5 C5.49034386 6.29660434 5.49034386 6.29660434 8 7 C7.67 7.66 7.34 8.32 7 9 C6.0409375 9.12375 6.0409375 9.12375 5.0625 9.25 C4.381875 9.4975 3.70125 9.745 3 10 C1.6954344 12.99615946 1.6954344 12.99615946 1 16 C-1 13 -1 13 -1 10 C-3.97 9.505 -3.97 9.505 -7 9 C-7 8.34 -7 7.68 -7 7 C-5.02 6.67 -3.04 6.34 -1 6 C-0.67 4.02 -0.34 2.04 0 0 Z " fill="#0F1B00" transform="translate(207,161)"/>
</svg>
